<mxfile host="app.diagrams.net" modified="2022-03-17T11:01:53.739Z" agent="5.0 (Macintosh; Intel Mac OS X 10_15_7) AppleWebKit/605.1.15 (KHTML, like Gecko) Version/15.3 Safari/605.1.15" etag="JfAxEnGYFeCW7FI40Kgu" version="17.1.3" type="github">
  <diagram id="JY3sOAjS9u-fICT8Hrhd" name="Page-1">
    <mxGraphModel dx="2804" dy="1037" grid="1" gridSize="10" guides="1" tooltips="1" connect="1" arrows="1" fold="1" page="1" pageScale="1" pageWidth="827" pageHeight="1169" math="0" shadow="0">
      <root>
        <mxCell id="0" />
        <mxCell id="1" parent="0" />
        <mxCell id="ByVA42EGtI5dpzOPRM_D-33" value="VPC" style="points=[[0,0],[0.25,0],[0.5,0],[0.75,0],[1,0],[1,0.25],[1,0.5],[1,0.75],[1,1],[0.75,1],[0.5,1],[0.25,1],[0,1],[0,0.75],[0,0.5],[0,0.25]];outlineConnect=0;gradientColor=none;html=1;whiteSpace=wrap;fontSize=12;fontStyle=0;container=1;pointerEvents=0;collapsible=0;recursiveResize=0;shape=mxgraph.aws4.group;grIcon=mxgraph.aws4.group_vpc;strokeColor=#248814;fillColor=none;verticalAlign=top;align=left;spacingLeft=30;fontColor=#AAB7B8;dashed=0;" parent="1" vertex="1">
          <mxGeometry x="-380" y="370" width="1280" height="680" as="geometry" />
        </mxCell>
        <mxCell id="ByVA42EGtI5dpzOPRM_D-36" value="Public subnet" style="points=[[0,0],[0.25,0],[0.5,0],[0.75,0],[1,0],[1,0.25],[1,0.5],[1,0.75],[1,1],[0.75,1],[0.5,1],[0.25,1],[0,1],[0,0.75],[0,0.5],[0,0.25]];outlineConnect=0;gradientColor=none;html=1;whiteSpace=wrap;fontSize=12;fontStyle=0;container=1;pointerEvents=0;collapsible=0;recursiveResize=0;shape=mxgraph.aws4.group;grIcon=mxgraph.aws4.group_security_group;grStroke=0;strokeColor=#248814;fillColor=#E9F3E6;verticalAlign=top;align=left;spacingLeft=30;fontColor=#248814;dashed=0;" parent="ByVA42EGtI5dpzOPRM_D-33" vertex="1">
          <mxGeometry x="115" y="134" width="226" height="556" as="geometry" />
        </mxCell>
        <mxCell id="ByVA42EGtI5dpzOPRM_D-26" value="ELB" style="sketch=0;points=[[0,0,0],[0.25,0,0],[0.5,0,0],[0.75,0,0],[1,0,0],[0,1,0],[0.25,1,0],[0.5,1,0],[0.75,1,0],[1,1,0],[0,0.25,0],[0,0.5,0],[0,0.75,0],[1,0.25,0],[1,0.5,0],[1,0.75,0]];outlineConnect=0;fontColor=#232F3E;gradientColor=#945DF2;gradientDirection=north;fillColor=#5A30B5;strokeColor=#ffffff;dashed=0;verticalLabelPosition=bottom;verticalAlign=top;align=center;html=1;fontSize=12;fontStyle=0;aspect=fixed;shape=mxgraph.aws4.resourceIcon;resIcon=mxgraph.aws4.elastic_load_balancing;" parent="ByVA42EGtI5dpzOPRM_D-36" vertex="1">
          <mxGeometry x="77" y="242" width="78" height="78" as="geometry" />
        </mxCell>
        <mxCell id="ByVA42EGtI5dpzOPRM_D-35" value="Private subnet" style="points=[[0,0],[0.25,0],[0.5,0],[0.75,0],[1,0],[1,0.25],[1,0.5],[1,0.75],[1,1],[0.75,1],[0.5,1],[0.25,1],[0,1],[0,0.75],[0,0.5],[0,0.25]];outlineConnect=0;gradientColor=none;html=1;whiteSpace=wrap;fontSize=12;fontStyle=0;container=1;pointerEvents=0;collapsible=0;recursiveResize=0;shape=mxgraph.aws4.group;grIcon=mxgraph.aws4.group_security_group;grStroke=0;strokeColor=#147EBA;fillColor=#E6F2F8;verticalAlign=top;align=left;spacingLeft=30;fontColor=#147EBA;dashed=0;" parent="ByVA42EGtI5dpzOPRM_D-33" vertex="1">
          <mxGeometry x="610" y="134" width="590" height="556" as="geometry" />
        </mxCell>
        <mxCell id="r5tLVVq1wL72WuHR3fhP-7" value="" style="group" vertex="1" connectable="0" parent="ByVA42EGtI5dpzOPRM_D-35">
          <mxGeometry x="20" y="81.5" width="186" height="128.5" as="geometry" />
        </mxCell>
        <mxCell id="r5tLVVq1wL72WuHR3fhP-3" value="" style="whiteSpace=wrap;html=1;dashed=1;fillColor=none;gradientColor=none;" vertex="1" parent="r5tLVVq1wL72WuHR3fhP-7">
          <mxGeometry width="186.00000000000003" height="128.5" as="geometry" />
        </mxCell>
        <mxCell id="r5tLVVq1wL72WuHR3fhP-4" value="EKS Cluster" style="sketch=0;outlineConnect=0;fontColor=#232F3E;gradientColor=none;strokeColor=#ffffff;fillColor=#232F3E;dashed=0;verticalLabelPosition=middle;verticalAlign=bottom;align=center;html=1;whiteSpace=wrap;fontSize=9;fontStyle=1;spacing=-2;shape=mxgraph.aws4.productIcon;prIcon=mxgraph.aws4.eks;" vertex="1" parent="r5tLVVq1wL72WuHR3fhP-7">
          <mxGeometry width="41.333333333333336" height="60.613207547169814" as="geometry" />
        </mxCell>
        <mxCell id="r5tLVVq1wL72WuHR3fhP-5" value="&lt;p style=&quot;line-height: 1.2; font-size: 9px;&quot;&gt;Managerd Node&lt;/p&gt;" style="whiteSpace=wrap;html=1;dashed=1;fontSize=9;fillColor=none;gradientColor=none;align=right;verticalAlign=bottom;labelPosition=left;verticalLabelPosition=top;spacing=-25;spacingTop=0;spacingLeft=0;spacingBottom=0;spacingRight=-44;" vertex="1" parent="r5tLVVq1wL72WuHR3fhP-7">
          <mxGeometry x="51.66666666666667" y="21.82075471698113" width="124.00000000000001" height="96.98113207547169" as="geometry" />
        </mxCell>
        <mxCell id="r5tLVVq1wL72WuHR3fhP-6" value="Services" style="shape=image;verticalLabelPosition=bottom;labelBackgroundColor=default;verticalAlign=top;aspect=fixed;imageAspect=0;image=data:image/png,iVBORw0KGgoAAAANSUhEUgAAAEAAAABSCAYAAADkd9JOAAAMbWlDQ1BJQ0MgUHJvZmlsZQAASImVVwdYU8kWnluSkJDQAqFICb0JIr1ICaEFEJAq2AhJIKHEmBBU7Kio4FoRUazoqoiiawFkURF7WRR7XyyorKyLBUVReRMS0HVf+d75vrnz3zNn/lPuzL13ANDs5UokuagWAHnifGl8eDBzbGoak/QMYEAdMIA2cOfyZBJWXFw0gDLY/13e3wSIor/mpOD65/h/FR2+QMYDABkPcQZfxsuDuBkAfANPIs0HgKjQW07NlyjwXIh1pTBAiMsUOEuJdylwhhI3DdgkxrMhvgKAGpXLlWYBoHEf6pkFvCzIo/EZYhcxXyQGQHM4xAE8IZcPsSL24Xl5kxW4AmI7aC+BGMYDvDO+48z6G3/GED+XmzWElXkNiFqISCbJ5U7/P0vzvyUvVz7owwY2qlAaEa/IH9bwds7kKAWmQtwlzoiJVdQa4l4RX1l3AFCKUB6RpLRHjXkyNqwffOYAdeFzQ6IgNoY4TJwbE63SZ2SKwjgQw9WCThPlcxIhNoB4sUAWmqCy2SKdHK/yhdZlStkslf4cVzrgV+HroTwniaXifyMUcFT8mEahMDEFYgrEVgWi5BiINSB2luUkRKlsRhUK2TGDNlJ5vCJ+K4jjBeLwYCU/VpApDYtX2ZfkyQbzxbYIRZwYFT6QL0yMUNYHO8XjDsQPc8GuCMSspEEegWxs9GAufEFIqDJ37IVAnJSg4umV5AfHK+fiFElunMoetxDkhiv0FhC7ywoSVHPx5Hy4OJX8eKYkPy5RGSdemM2NjFPGg68A0YANQgATyGHLAJNBNhC1dtV3wTvlSBjgAinIAgLgpNIMzkgZGBHDawIoBH9CJACyoXnBA6MCUAD1X4a0yqsTyBwYLRiYkQOeQZwHokAuvJcPzBIPeUsGT6FG9A/vXNh4MN5c2BTj/14/qP2mYUFNtEojH/TI1By0JIYSQ4gRxDCiPW6EB+B+eDS8BsHminvjPoN5fLMnPCO0ER4TbhDaCXcmiYqkP0Q5GrRD/jBVLTK+rwVuAzk98GDcH7JDZpyBGwEn3B36YeGB0LMH1LJVcSuqwvyB+28ZfPc0VHZkFzJK1icHke1+nKnhoOExxKKo9ff1UcaaMVRv9tDIj/7Z31WfD/uoHy2xxdhB7Cx2AjuPNWH1gIkdxxqwS9hRBR5aXU8HVtegt/iBeHIgj+gf/rgqn4pKylxqXDpdPivH8gXT8hUbjz1ZMl0qyhLmM1nw6yBgcsQ85+FMVxdXVwAU3xrl6+stY+AbgjAufNMVvQPAn9/f39/0TRcN9/qhhXD7P/umsz0GXxP6AJwr5cmlBUodrrgQ4FtCE+40Q2AKLIEdzMcVeAI/EARCQSSIBYkgFUyEVRbCdS4FU8FMMA8Ug1KwAqwB68FmsA3sAnvBAVAPmsAJcAZcBFfADXAPrp4O8BJ0g/egD0EQEkJD6IghYoZYI46IK+KNBCChSDQSj6Qi6UgWIkbkyExkPlKKrELWI1uRauQX5AhyAjmPtCF3kEdIJ/IG+YRiKBXVRU1QG3QE6o2y0Cg0EZ2AZqFT0EJ0AboMrUCr0D1oHXoCvYjeQNvRl2gPBjB1jIGZY06YN8bGYrE0LBOTYrOxEqwcq8JqsUb4nK9h7VgX9hEn4nSciTvBFRyBJ+E8fAo+G1+Kr8d34XX4Kfwa/gjvxr8SaARjgiPBl8AhjCVkEaYSignlhB2Ew4TTcC91EN4TiUQG0ZboBfdiKjGbOIO4lLiRuI/YTGwjPiH2kEgkQ5IjyZ8US+KS8knFpHWkPaTjpKukDlKvmrqamZqrWphamppYrUitXG232jG1q2rP1frIWmRrsi85lswnTycvJ28nN5IvkzvIfRRtii3Fn5JIyabMo1RQaimnKfcpb9XV1S3UfdTHqIvU56pXqO9XP6f+SP0jVYfqQGVTx1Pl1GXUndRm6h3qWxqNZkMLoqXR8mnLaNW0k7SHtF4NuoazBkeDrzFHo1KjTuOqxitNsqa1JktzomahZrnmQc3Lml1aZC0bLbYWV2u2VqXWEa1bWj3adO2R2rHaedpLtXdrn9d+oUPSsdEJ1eHrLNDZpnNS5wkdo1vS2XQefT59O/00vUOXqGury9HN1i3V3avbqtutp6PnrpesN02vUu+oXjsDY9gwOIxcxnLGAcZNxid9E32WvkB/iX6t/lX9DwbDDIIMBAYlBvsMbhh8MmQahhrmGK40rDd8YIQbORiNMZpqtMnotFHXMN1hfsN4w0qGHRh21xg1djCON55hvM34knGPialJuInEZJ3JSZMuU4ZpkGm2aZnpMdNOM7pZgJnIrMzsuNkfTD0mi5nLrGCeYnabG5tHmMvNt5q3mvdZ2FokWRRZ7LN4YEmx9LbMtCyzbLHstjKzGm0106rG6q412drbWmi91vqs9QcbW5sUm0U29TYvbA1sObaFtjW29+1odoF2U+yq7K7bE+297XPsN9pfcUAdPByEDpUOlx1RR09HkeNGx7bhhOE+w8XDq4bfcqI6sZwKnGqcHjkznKOdi5zrnV+NsBqRNmLliLMjvrp4uOS6bHe5N1JnZOTIopGNI9+4OrjyXCtdr7vR3MLc5rg1uL12d3QXuG9yv+1B9xjtscijxeOLp5en1LPWs9PLyivda4PXLW9d7zjvpd7nfAg+wT5zfJp8Pvp6+ub7HvD9y8/JL8dvt9+LUbajBKO2j3rib+HP9d/q3x7ADEgP2BLQHmgeyA2sCnwcZBnED9oR9Jxlz8pm7WG9CnYJlgYfDv7A9mXPYjeHYCHhISUhraE6oUmh60MfhlmEZYXVhHWHe4TPCG+OIERERayMuMUx4fA41ZzuSK/IWZGnoqhRCVHrox5HO0RLoxtHo6MjR68efT/GOkYcUx8LYjmxq2MfxNnGTYn7dQxxTNyYyjHP4kfGz4w/m0BPmJSwO+F9YnDi8sR7SXZJ8qSWZM3k8cnVyR9SQlJWpbSPHTF21tiLqUapotSGNFJactqOtJ5xoePWjOsY7zG+ePzNCbYTpk04P9FoYu7Eo5M0J3EnHUwnpKek707/zI3lVnF7MjgZGzK6eWzeWt5LfhC/jN8p8BesEjzP9M9clfkiyz9rdVanMFBYLuwSsUXrRa+zI7I3Z3/Iic3ZmdOfm5K7L08tLz3viFhHnCM+Ndl08rTJbRJHSbGkfYrvlDVTuqVR0h0yRDZB1pCvC3/qL8nt5AvljwoCCioLeqcmTz04TXuaeNql6Q7Tl0x/XhhW+PMMfAZvRstM85nzZj6axZq1dTYyO2N2yxzLOQvmdMwNn7trHmVezrzfilyKVhW9m58yv3GByYK5C54sDF9YU6xRLC2+tchv0ebF+GLR4tYlbkvWLflawi+5UOpSWl76eSlv6YWfRv5U8VP/ssxlrcs9l29aQVwhXnFzZeDKXau0VxWuerJ69Oq6MmZZSdm7NZPWnC93L9+8lrJWvra9IrqiYZ3VuhXrPq8Xrr9RGVy5b4PxhiUbPmzkb7y6KWhT7WaTzaWbP20Rbbm9NXxrXZVNVfk24raCbc+2J28/+7P3z9U7jHaU7viyU7yzfVf8rlPVXtXVu413L69Ba+Q1nXvG77myN2RvQ61T7dZ9jH2l+8F++f4/fkn/5eaBqAMtB70P1h6yPrThMP1wSR1SN72uu15Y396Q2tB2JPJIS6Nf4+FfnX/d2WTeVHlU7+jyY5RjC471Hy883tMsae46kXXiScuklnsnx568fmrMqdbTUafPnQk7c/Is6+zxc/7nms77nj9ywftC/UXPi3WXPC4d/s3jt8Otnq11l70uN1zxudLYNqrt2NXAqyeuhVw7c51z/eKNmBttN5Nu3r41/lb7bf7tF3dy77y+W3C3797c+4T7JQ+0HpQ/NH5Y9bv97/vaPduPPgp5dOlxwuN7T3hPXj6VPf3cseAZ7Vn5c7Pn1S9cXzR1hnVe+WPcHx0vJS/7uor/1P5zwyu7V4f+CvrrUvfY7o7X0tf9b5a+NXy78537u5aeuJ6H7/Pe930o6TXs3fXR++PZTymfnvdN/Uz6XPHF/kvj16iv9/vz+vslXCl34FcAgw3NzATgzU4AaKkA0OG5jTJOeRYcEER5fh1A4D9h5XlxQDwBqIWd4jee3QzAfths5kLuIAAUv/CJQQB1cxtqKpFlurkquajwJETo7e9/awIAqRGAL9L+/r6N/f1ftsNg7wDQPEV5BlUIEZ4ZtgQo0A2DjEH/Q6I8n36X4489UETgDn7s/wU6ZI9aTNuQhAAAAIplWElmTU0AKgAAAAgABAEaAAUAAAABAAAAPgEbAAUAAAABAAAARgEoAAMAAAABAAIAAIdpAAQAAAABAAAATgAAAAAAAACQAAAAAQAAAJAAAAABAAOShgAHAAAAEgAAAHigAgAEAAAAAQAAAECgAwAEAAAAAQAAAFIAAAAAQVNDSUkAAABTY3JlZW5zaG900NiDSgAAAAlwSFlzAAAWJQAAFiUBSVIk8AAAAdRpVFh0WE1MOmNvbS5hZG9iZS54bXAAAAAAADx4OnhtcG1ldGEgeG1sbnM6eD0iYWRvYmU6bnM6bWV0YS8iIHg6eG1wdGs9IlhNUCBDb3JlIDYuMC4wIj4KICAgPHJkZjpSREYgeG1sbnM6cmRmPSJodHRwOi8vd3d3LnczLm9yZy8xOTk5LzAyLzIyLXJkZi1zeW50YXgtbnMjIj4KICAgICAgPHJkZjpEZXNjcmlwdGlvbiByZGY6YWJvdXQ9IiIKICAgICAgICAgICAgeG1sbnM6ZXhpZj0iaHR0cDovL25zLmFkb2JlLmNvbS9leGlmLzEuMC8iPgogICAgICAgICA8ZXhpZjpQaXhlbFlEaW1lbnNpb24+ODI8L2V4aWY6UGl4ZWxZRGltZW5zaW9uPgogICAgICAgICA8ZXhpZjpQaXhlbFhEaW1lbnNpb24+NjQ8L2V4aWY6UGl4ZWxYRGltZW5zaW9uPgogICAgICAgICA8ZXhpZjpVc2VyQ29tbWVudD5TY3JlZW5zaG90PC9leGlmOlVzZXJDb21tZW50PgogICAgICA8L3JkZjpEZXNjcmlwdGlvbj4KICAgPC9yZGY6UkRGPgo8L3g6eG1wbWV0YT4KyolICQAAABxpRE9UAAAAAgAAAAAAAAApAAAAKAAAACkAAAApAAAJP/E/7ssAAAkLSURBVHgB7Fr5c1PXGT1aLVkLsiXZlo1tHCixobZLAkwCCQQCAaeFzCQkmTRt0iXTKUMmf05LOkmnPyTThV8yk5lOYjdLIaFtWA2JIdgxW/AmW8aWLT0tT6/nu5KMEsbGlozKTLnwpCc9vXe/79zzrdcmgwP/x8N0H4D7DLhvAoaR0ZFJaUjNTMLQ04BgYjLdW54ht04miwUWpxeWikqYrfaSZTRReSM5PQ5tbBDx630KCLGKe01/5Fy1YbbAEWyBs/4HcNSsopzmkkAwZdJJY+ZKLyZ7uxHr+wx6Ik4C3FsA5LkoJNB1wNnSDt+Gp+DfsBdmi7UktprSiZgxef5jjB/7M+IXe5FO0gQ44z3BAKV5Tn1qn8kA6UQGlauaENiyD3U7f6VMwWQungWmtBYzIlz98D/fgdbfB6PCDnuwHs6G1aTWHPYF5yUxbmk3q4UwI6OnkLo5Bm3kW2g3wnA0NRCA/ajf/RosDjdKBkDoHz76LuIDfbD6g/D88HFUP9QFCLLCOzXyYCxNh5J+nQcgncTstS8x1fsJps6egaOxHoGtz6B+12sw0xmWDsA5YcC70Aa+gn3lKvi3HCC9fqmUlwghB1/yfqgknYq9Odr/H4Q/O4KJox+hYmUI/q1kAGU02RgJaK/yTxbMZLbykMWS485DmcBkIQANzagmACE+XEJjbKgf8eF+JKfGYMhEPMo6OJ1Bz6eNXsHs5XOIDV6GdYUblS2t8K7dBLOtQi2U2e6Evaoerqb1sHuD2e8XIeg8ADyHuideRSIyhMjpvyN64XPoDJUCgAArEOQNYxFzlP6TjAFdm0UqGmWuEqNyVtg8Lti8VVxti2KnucIJm78B1RufgbulE/YVNYuadx4ADqB2+8+U3Y189EdM9x6DKZEErBZlb8ICo6wQCOSy0IwEfJdP6hA5VGigiZL+Vq8XgSdfga9jFypDa+SWO475Adj2U0x/cxojPX9A9PwJiFmZPR5mYS5mYDYKI6KUc1AA/jeY+LCCy01MZiQ06NEpgAtkZgQL7P45HfjTcK1sW5RwCwDwMqKDBKD7TZrAadjdLng6d8DZuJ7088ty5HIFWYtyjCwAhTNlmLZr49cx89Wn0K5eUmwI7nkVVRsIQMODhT+d93xhAC6fwciHhzH79RlUVPvh3/EKPGsfgd0XUg9UqpfbKRaowiwWseEBRI7/lSAcRyaRQGDvL7IA1K8t+OX8p4sE4CwcgQCCe34Db+tjqKgKZe0xqcFIJVSioowy+zL/bMt8RQq3+MggIv/6G6J9/0ZGS6B65wvwtT8JZ+0D2dmEqXSUZmsFTcRB1tJpFizaIgFg8uEP0L5+DW/bNgJQj0w6gfjQ1wxPgwyR4exDCx68zLre/jgpgqicRKrYwClow1dhpHW4Wn+EysZ1ZGntXGVrqfRyAZvg4vcWhwcmqR9yY2kA7CIA67bB5vbT9q4hcuI9xC6fRXpqIuuclE3kHVR+irv1nvU94gRTdIJ6PKFYafO6YXO5YbY71GeJV5It2lk5BrY8j8qGNspfNSdUUQBYnR7MXD2P0X+8RfTPQY9pgI0hUlZF5CoHBln91VwZMiHf2DKThSpZ43WD+QPtkzKZmSMEUdd1EL62rfRn9aUBYHG4GCJPYfTDN8mAi6RaBhafj/RyZelFgco6lOkVICJrwPwgQx+lT9+kc0zCyhAe+slBVLXvZD+haU68ohiQByDMCKF9O8iHe7Fi8z64mjtgdVURkBQnyAs0N1fBiQB0F0Gio5M0Xhu7iqmT7yN+bQCGzYbQvkNZAAKNc7IUCYCbDDgJASAxdAX26iD8LE09qzeqPFwV7jLFghgsXy5ZOI3AKqaoJ2YZIr/BxCdvI3rpDDIEZfkB+OAwksMEIFCLQNcheAmAMCCTiHEF2FmSNFVGXsKsdOzi2LJ1PCu5Ulta2Qluf9W1GQVAuPv3iF48CZ1mEtr3+jIzIA+AXwA4qBggyklsTkxcVzSkhrcQkJjMEGSt9NEbP6hClarmbpe/5G/0+Axmhy9hvIeZ7MVTdxkAMiDY9Trj7HokGB7Hjv2FhdQF5YSyi6+WXripALC4vAg+9jx867Z/xyGVrHXBA8oOQM2P30BFTQtiV8+xfmB4vH6Nfs6Axc4GBVvZcq6n04xKGZhYVdbuegmBTftV0SItL7le+pCsT+az0gzj5WRAHQQAO+PrDAuosZ63aQZhFk2VqAjW8Z1+IRmnWYxCm4jQNNIE4AD8m/bBWbcGyZvDKqVWICiTWToUKg8giGJethVBBYLUCeM9h8thAnkAGjBzmQB0E4DRMbhbO1D1cBfczZ1ITY2q1vvk6U+Rmp5B6CnJ2XeoltZUbw/SUWaT7PwU298Th2vi4WhsY7r+uAI2Hr7CSFUOJxj4LgBhYQAB8G3cjuC2l+FZ1Yk0d53Gjh9h8/UImTCJ0J4XVWWpx6cQ+fhPSEYiKqFSjYelE4AZH01IN7EWaGdL71k+ewsSk0ME4Hcs50/cbSd4C4BZYUAOAG/no8y/D8C9qoP5egTjX7yH8ePvs8U9RQa8yMpyiwqZkaPvIDk5ofxD8QAw5DLrda3tQPXm/XCv3qQKpXB3mQEQEwiLCYyMsX/fDE/rIyrkJafDTEhOINovtUMcdbtfQHXnLkilNn3xc6RnmbKKCRTtAwgA834nW2HuBx5m9boScWaC5ckDCk1g8CTGPniLmxjjtG8zFXQwEtiZHKZZsWlIx5Jkq0En+ByCjz5LdnQqBynCl7IlJ/dKIJF2nVSCmZQ0S/rLlwfUPP0GHHWrEb9xAWHatHaD9TkbFiYLe3hqVWVrK1u1GRSyZsdLud5dKy2ekqsoqF6K8QDqHrmbmYbKPPX4bDnDoCRCh9iTb6ezm8BNevXEyIBKhPJpsAim1GN3xsTtrCpubHpaHlLZYNEaL3BjeRMhSYX3HoR3DTcq2HwQ7yt7eQa7Rtk1zRcDXBzZ3ycAzmCzqhsKuzML6LPkS/8DAH5LADZzsyKgyuG5P7Sg6IXEzjYrzOqPG9SmRpFO706IlBmAmhwDNt81St9J4e9fvw9AWatBfyEDuCeXC0nfX5W5z8pRy8st3zB3bZlOFsuA/wIAAP//ciimvAAACoZJREFU7Vr5c1PnFT1PuyxZtmRZlg0GDGYvO5gmBZoAZliSttMGsjW/pDsJ/W+SkEwyyUyaDpOf0kxnCqY0kDQLi8O+GrMaL5K8ad9fz/1kY+MSY4S3mfZ5LMt69nvvO+/ec+4992nZZFzvPdeE4LFPkLx+EZYZs+F5+gVUbXoVkZun0XloP2JXT8NW4YV362/gWrIJRpsT4dZTCB7cj3THLVgqqlC5/U8orV8Hg9mGZOgO0v1dyGfTADT1xTeFzWCAyeaAzVcHs8sLg8kyuGdcf+YSUcQ6riF0+F1ErjQjp2mofv5NuJdths1be/9c2rgA4CUAO96Ac/ZyZKI96Dt3GMn268hnkupEAoFsOn9oBhMMdifcK7bBWbcalnKf2jfeL5MOgG/XPtj89UjcvYTAkQ+RbLsJPZuDZjJAI/rQdeTzOuQLZjN8m1+BZ80uOGYs5K48948HBDyIZuC3hnwyPpkR4Idv159h8dQgeqMZwaYPkOwIQrOYYHTaYbLamA5ZZONxfiehE4iqxl+hYv0vGTXLkEszUvI5AqHLtRe1yf/KZjCZYbDYoWfSUwHAjPsAJLoCsM2ag9KFDbBXz0M22otwyylEW84hG0uiettulK9ohMnuQv+Vr/lZH4FhxMgdLGLT83lo/H9bTT2cc9eQs2YgEbyN4KF3yAGnJpoDBiOAANz8XkWAAOBa9RS8JFTn7BXIRLoROvE3hL75HJm+fgLwIlyLnkY+FUfo6MdI93YzCAgASbKoLcc0YmQ5Fq5gZP1cEXKyp50AvI3I5ZOTB0CMAAQOMwUIQHnDZvh++msV5tl4P7q+/hSBLw4g3dOrACid34BcrIcX+T4yPf0EgIswFJkDXLyW0+BcshSejbvhWrwJqd6OyQdAIiAgHEAAHAuWoGzFFhLdYhUBfReOov/8N8hGYvA3MgWWb4bRWoLwhX8xRQopUDQJCADkAduM+XAu+LGS2URAUoARMJkpELvZjC4BoDMIU5mTF1IDi8uDXDLB+qAdye4QCSqHqq0vwLP2Odj98xgR7fwsRSFgBAxI5mOngSJBHaaScpjLq6AZzUh0XEfw8P7JqQNEBawsbuK3z6kUiN9rU9JnpBJoRuY171COSpAXsjIa4dvyEirW/QyO2iXQmftKB59ICkUCRQF5LoNxsmWQhdDON7mYZUgFbyFw7C+I3b7Eu055U7pWWJmqB4yURoeL3PAy3D96hlXZrMe+2WP5h8kthFgKe3ewFJ67Vt3dBEvQdE/nQCn84OVqAgBL6ZKahbC4q8kB9gf/YJx+m2QAfPCyF3DVN8BcynyntOXTCeq65PSIjRFhYH4a2Q9oJmvxsjfisCN/nTIALCSg6bD9H4BJ7QYrhlJgMAKkrJUGSG0P1DbsDQcalomMlHGKgDP0A94Zkx9Q4IB1iuAy4aBqi/VshmsUeRpCQKNEGSwlbIP91GwXSdM0ITgUD8DMOfA8JYbIK4jeOouOgwLA9480RLw79qK0bpUiv/C171QRoqfjhcUNrZ8LZrfmcKN88QYqwSKYHGXTDIDauoIjtPFlRO9cQOc/3kL0cvPoAIghsnMf7DULEKcf0CW9wF3xAxgBUttLKigQ+CLNjtmCqi2vomLNTpTQD5iI7fEi4CwtsS8/QYKWmLmqBmWrtqFi7fOItV1C6KsDSNy6Crt3FEvMK93gPlhY1MSUjfY+HaFOwEjJs1vZo5uUJOZTaUZIRnkf/sY98Db8Ao5ZS/kZPYJBU2RYtDw2MARa/ACRVymtx26JCQCs3uItl6A57LDNrEdJ7VKk+joQbz2PXLgPJT4WO1tff7gnqAAQQ6TgB0gzJO2wpbIS9lkLYeXn2UQYiXstiLfdYguchn/rbnhWb1f74vcus3SNFUAYxhePBYBEGb8tbj9sVfPIL2VIdN4Y6AVG8wNSYor+kwD8FfGr51iv05lh2Er9Ls6Nns1D6nm7349KAlD2MFN0OACDfkAgwE5wPbw/2YPSeQ1sTe8hdPwzhL79u/ID/Nv2oIw8APYBPd9+inRfkD1BlqlSpB+gDJE8HPUrUb56JxxzVrL5ahvoBkfxA3KZlB6+fgK9Jz9H5PxXrOKkK2NryS8xKHKJNEPKOGYAxA8IkgMkAsoanmXN/xrK5q1FmsoQ+PcBdB3lYrt7UL39RRT8gD70HPmQpTO7RIL9RH4Ab1jJouXwEHTnog00WToJwFujGyJcpJ7quUfyuoDodSKVklAshFO6P4TEnSvIRaOwVzECGn+r7prB6kDkxmkEDr6NdPtN5v4wR+jGEACOxcvhJtE5Zy2DSGPvmSb0nj7K9xH6AXtQvnQTFVJT4GfCBEBqhyeIAPEV7XXLUb5sC0pmLmEE3H20H8DF6uLfi2OT6m6jlZ1SuZTPZyllrehh2Kbo8NqZz2ousGijquPDslDWCOl2zgUeAKAZgUMfIC4cUFEBe20987yGx48gQas80X5XEaG/kX7A6h2KA2LCAewflK9XJAfITdP1HKzuGt6suQUO6CIHNIkfMAoHCAAPIxsBJXrnIjqUDJ6Eze2B55nX6ONtgNHuUIOR7iMfId11F9ZKRsBO+gEcOERbmymd7ylXWHl8VILBbfBUeX4kpmgl/UKpHSZiG7MM/iAAjIQww7yz6V1EL52ie2uFff5q2KnbBosN8Y4bSFw9Dj0e4zxgJnwcjMi+JFEPUFJTba3KmtaGeXwKAIa4Tpvct+kluJdvUXdr2gIgo7GOpvcQPntcOTqGUhfvvpNpakI2GYUe7YeRgw87x2m+7X+Ak8wrkRPhbCBNP06XydBQABSqYpbCGq1w14L1JNZ6FarTEwAuJN52GV2sD/rOUR2i0t8XijrRW/HvDOQJk91CwpkD37bf0YpugMnppuZHkYv3DRgikmFDKEgvYCSJmvl3Mkcc3ieMJxBPnALCyCJdfZe+pDo0U7sDhYvlAmRfJtyNDPNfo/7aa2oJwO8VAIVuUFTkEcspkuwecdT7u58YALnLEs4y7JSpTo4hL3dSDE2RSiHIvu8+Q7Y3SBKs5nT4j3SE1sFSNp0MkRZOhx/hCv8QCd6Hkm9EnqiV6iPp5bPxMPo5Hg+RH9KdMh730xPcCxcLHkvZxEx7h1/PWN7nWFrHO1spgwNzAd68h47HxwLAyBNmOMdTdQBb5ZQUQm4vPFteVyRooScoDDG1G6tY1hVJzga7j36ESMsZ5DUjAXjjv58PKAoAGXRS7wOUyMSdFsqilSVoA5uQOqUSBSNk6iDQuNh8LoMMH9KIXztBq74Lms2G6l17CcCzsFUOWfGcJj28EBrt8jODAPDpkfiNq4WGqdTJCtGuOEK1tqMdYIL3SR8jy5IReS4a4fg9A2O5C9XPCQAjnhApBoBsIkKv4DJCxz5mu8wOMkaCFFYfUrsJXuJjHF6ykX6EmeV6lTziw4HsoG8pRykqAqRfEInsv/AFnwi5iFwkxPWzwrt/XVONhHSzosQDr6w7LJWz4V65TU2iZDAzuBUFgJJI9u6Z/gAysV4Sjkgk+/ipXvfgqob/ZCoYzFZVcZppxBpGDGOKA2DgBHl6fjrJZlAih593Or0XUtTk0RkasiMrzycCYDotsthr+Z8H4D8o2pLsYNIf4gAAAABJRU5ErkJggg==;spacing=-1;" vertex="1" parent="r5tLVVq1wL72WuHR3fhP-7">
          <mxGeometry x="80.60000000000001" y="40.24716981132075" width="46.929169811320754" height="60.12830188679246" as="geometry" />
        </mxCell>
        <mxCell id="r5tLVVq1wL72WuHR3fhP-8" value="" style="group" vertex="1" connectable="0" parent="ByVA42EGtI5dpzOPRM_D-35">
          <mxGeometry x="20" y="376" width="678" height="154" as="geometry" />
        </mxCell>
        <mxCell id="r5tLVVq1wL72WuHR3fhP-9" value="" style="whiteSpace=wrap;html=1;dashed=1;fillColor=none;gradientColor=none;" vertex="1" parent="r5tLVVq1wL72WuHR3fhP-8">
          <mxGeometry width="186.00000000000003" height="128.5" as="geometry" />
        </mxCell>
        <mxCell id="r5tLVVq1wL72WuHR3fhP-10" value="EKS Cluster" style="sketch=0;outlineConnect=0;fontColor=#232F3E;gradientColor=none;strokeColor=#ffffff;fillColor=#232F3E;dashed=0;verticalLabelPosition=middle;verticalAlign=bottom;align=center;html=1;whiteSpace=wrap;fontSize=9;fontStyle=1;spacing=-2;shape=mxgraph.aws4.productIcon;prIcon=mxgraph.aws4.eks;" vertex="1" parent="r5tLVVq1wL72WuHR3fhP-8">
          <mxGeometry width="41.333333333333336" height="60.613207547169814" as="geometry" />
        </mxCell>
        <mxCell id="r5tLVVq1wL72WuHR3fhP-11" value="&lt;p style=&quot;line-height: 1.2; font-size: 9px;&quot;&gt;Managerd Node&lt;/p&gt;" style="whiteSpace=wrap;html=1;dashed=1;fontSize=9;fillColor=none;gradientColor=none;align=right;verticalAlign=bottom;labelPosition=left;verticalLabelPosition=top;spacing=-25;spacingTop=0;spacingLeft=0;spacingBottom=0;spacingRight=-44;" vertex="1" parent="r5tLVVq1wL72WuHR3fhP-8">
          <mxGeometry x="51.66666666666667" y="21.82075471698113" width="124.00000000000001" height="96.98113207547169" as="geometry" />
        </mxCell>
        <mxCell id="r5tLVVq1wL72WuHR3fhP-12" value="Services" style="shape=image;verticalLabelPosition=bottom;labelBackgroundColor=default;verticalAlign=top;aspect=fixed;imageAspect=0;image=data:image/png,iVBORw0KGgoAAAANSUhEUgAAAEAAAABSCAYAAADkd9JOAAAMbWlDQ1BJQ0MgUHJvZmlsZQAASImVVwdYU8kWnluSkJDQAqFICb0JIr1ICaEFEJAq2AhJIKHEmBBU7Kio4FoRUazoqoiiawFkURF7WRR7XyyorKyLBUVReRMS0HVf+d75vrnz3zNn/lPuzL13ANDs5UokuagWAHnifGl8eDBzbGoak/QMYEAdMIA2cOfyZBJWXFw0gDLY/13e3wSIor/mpOD65/h/FR2+QMYDABkPcQZfxsuDuBkAfANPIs0HgKjQW07NlyjwXIh1pTBAiMsUOEuJdylwhhI3DdgkxrMhvgKAGpXLlWYBoHEf6pkFvCzIo/EZYhcxXyQGQHM4xAE8IZcPsSL24Xl5kxW4AmI7aC+BGMYDvDO+48z6G3/GED+XmzWElXkNiFqISCbJ5U7/P0vzvyUvVz7owwY2qlAaEa/IH9bwds7kKAWmQtwlzoiJVdQa4l4RX1l3AFCKUB6RpLRHjXkyNqwffOYAdeFzQ6IgNoY4TJwbE63SZ2SKwjgQw9WCThPlcxIhNoB4sUAWmqCy2SKdHK/yhdZlStkslf4cVzrgV+HroTwniaXifyMUcFT8mEahMDEFYgrEVgWi5BiINSB2luUkRKlsRhUK2TGDNlJ5vCJ+K4jjBeLwYCU/VpApDYtX2ZfkyQbzxbYIRZwYFT6QL0yMUNYHO8XjDsQPc8GuCMSspEEegWxs9GAufEFIqDJ37IVAnJSg4umV5AfHK+fiFElunMoetxDkhiv0FhC7ywoSVHPx5Hy4OJX8eKYkPy5RGSdemM2NjFPGg68A0YANQgATyGHLAJNBNhC1dtV3wTvlSBjgAinIAgLgpNIMzkgZGBHDawIoBH9CJACyoXnBA6MCUAD1X4a0yqsTyBwYLRiYkQOeQZwHokAuvJcPzBIPeUsGT6FG9A/vXNh4MN5c2BTj/14/qP2mYUFNtEojH/TI1By0JIYSQ4gRxDCiPW6EB+B+eDS8BsHminvjPoN5fLMnPCO0ER4TbhDaCXcmiYqkP0Q5GrRD/jBVLTK+rwVuAzk98GDcH7JDZpyBGwEn3B36YeGB0LMH1LJVcSuqwvyB+28ZfPc0VHZkFzJK1icHke1+nKnhoOExxKKo9ff1UcaaMVRv9tDIj/7Z31WfD/uoHy2xxdhB7Cx2AjuPNWH1gIkdxxqwS9hRBR5aXU8HVtegt/iBeHIgj+gf/rgqn4pKylxqXDpdPivH8gXT8hUbjz1ZMl0qyhLmM1nw6yBgcsQ85+FMVxdXVwAU3xrl6+stY+AbgjAufNMVvQPAn9/f39/0TRcN9/qhhXD7P/umsz0GXxP6AJwr5cmlBUodrrgQ4FtCE+40Q2AKLIEdzMcVeAI/EARCQSSIBYkgFUyEVRbCdS4FU8FMMA8Ug1KwAqwB68FmsA3sAnvBAVAPmsAJcAZcBFfADXAPrp4O8BJ0g/egD0EQEkJD6IghYoZYI46IK+KNBCChSDQSj6Qi6UgWIkbkyExkPlKKrELWI1uRauQX5AhyAjmPtCF3kEdIJ/IG+YRiKBXVRU1QG3QE6o2y0Cg0EZ2AZqFT0EJ0AboMrUCr0D1oHXoCvYjeQNvRl2gPBjB1jIGZY06YN8bGYrE0LBOTYrOxEqwcq8JqsUb4nK9h7VgX9hEn4nSciTvBFRyBJ+E8fAo+G1+Kr8d34XX4Kfwa/gjvxr8SaARjgiPBl8AhjCVkEaYSignlhB2Ew4TTcC91EN4TiUQG0ZboBfdiKjGbOIO4lLiRuI/YTGwjPiH2kEgkQ5IjyZ8US+KS8knFpHWkPaTjpKukDlKvmrqamZqrWphamppYrUitXG232jG1q2rP1frIWmRrsi85lswnTycvJ28nN5IvkzvIfRRtii3Fn5JIyabMo1RQaimnKfcpb9XV1S3UfdTHqIvU56pXqO9XP6f+SP0jVYfqQGVTx1Pl1GXUndRm6h3qWxqNZkMLoqXR8mnLaNW0k7SHtF4NuoazBkeDrzFHo1KjTuOqxitNsqa1JktzomahZrnmQc3Lml1aZC0bLbYWV2u2VqXWEa1bWj3adO2R2rHaedpLtXdrn9d+oUPSsdEJ1eHrLNDZpnNS5wkdo1vS2XQefT59O/00vUOXqGury9HN1i3V3avbqtutp6PnrpesN02vUu+oXjsDY9gwOIxcxnLGAcZNxid9E32WvkB/iX6t/lX9DwbDDIIMBAYlBvsMbhh8MmQahhrmGK40rDd8YIQbORiNMZpqtMnotFHXMN1hfsN4w0qGHRh21xg1djCON55hvM34knGPialJuInEZJ3JSZMuU4ZpkGm2aZnpMdNOM7pZgJnIrMzsuNkfTD0mi5nLrGCeYnabG5tHmMvNt5q3mvdZ2FokWRRZ7LN4YEmx9LbMtCyzbLHstjKzGm0106rG6q412drbWmi91vqs9QcbW5sUm0U29TYvbA1sObaFtjW29+1odoF2U+yq7K7bE+297XPsN9pfcUAdPByEDpUOlx1RR09HkeNGx7bhhOE+w8XDq4bfcqI6sZwKnGqcHjkznKOdi5zrnV+NsBqRNmLliLMjvrp4uOS6bHe5N1JnZOTIopGNI9+4OrjyXCtdr7vR3MLc5rg1uL12d3QXuG9yv+1B9xjtscijxeOLp5en1LPWs9PLyivda4PXLW9d7zjvpd7nfAg+wT5zfJp8Pvp6+ub7HvD9y8/JL8dvt9+LUbajBKO2j3rib+HP9d/q3x7ADEgP2BLQHmgeyA2sCnwcZBnED9oR9Jxlz8pm7WG9CnYJlgYfDv7A9mXPYjeHYCHhISUhraE6oUmh60MfhlmEZYXVhHWHe4TPCG+OIERERayMuMUx4fA41ZzuSK/IWZGnoqhRCVHrox5HO0RLoxtHo6MjR68efT/GOkYcUx8LYjmxq2MfxNnGTYn7dQxxTNyYyjHP4kfGz4w/m0BPmJSwO+F9YnDi8sR7SXZJ8qSWZM3k8cnVyR9SQlJWpbSPHTF21tiLqUapotSGNFJactqOtJ5xoePWjOsY7zG+ePzNCbYTpk04P9FoYu7Eo5M0J3EnHUwnpKek707/zI3lVnF7MjgZGzK6eWzeWt5LfhC/jN8p8BesEjzP9M9clfkiyz9rdVanMFBYLuwSsUXrRa+zI7I3Z3/Iic3ZmdOfm5K7L08tLz3viFhHnCM+Ndl08rTJbRJHSbGkfYrvlDVTuqVR0h0yRDZB1pCvC3/qL8nt5AvljwoCCioLeqcmTz04TXuaeNql6Q7Tl0x/XhhW+PMMfAZvRstM85nzZj6axZq1dTYyO2N2yxzLOQvmdMwNn7trHmVezrzfilyKVhW9m58yv3GByYK5C54sDF9YU6xRLC2+tchv0ebF+GLR4tYlbkvWLflawi+5UOpSWl76eSlv6YWfRv5U8VP/ssxlrcs9l29aQVwhXnFzZeDKXau0VxWuerJ69Oq6MmZZSdm7NZPWnC93L9+8lrJWvra9IrqiYZ3VuhXrPq8Xrr9RGVy5b4PxhiUbPmzkb7y6KWhT7WaTzaWbP20Rbbm9NXxrXZVNVfk24raCbc+2J28/+7P3z9U7jHaU7viyU7yzfVf8rlPVXtXVu413L69Ba+Q1nXvG77myN2RvQ61T7dZ9jH2l+8F++f4/fkn/5eaBqAMtB70P1h6yPrThMP1wSR1SN72uu15Y396Q2tB2JPJIS6Nf4+FfnX/d2WTeVHlU7+jyY5RjC471Hy883tMsae46kXXiScuklnsnx568fmrMqdbTUafPnQk7c/Is6+zxc/7nms77nj9ywftC/UXPi3WXPC4d/s3jt8Otnq11l70uN1zxudLYNqrt2NXAqyeuhVw7c51z/eKNmBttN5Nu3r41/lb7bf7tF3dy77y+W3C3797c+4T7JQ+0HpQ/NH5Y9bv97/vaPduPPgp5dOlxwuN7T3hPXj6VPf3cseAZ7Vn5c7Pn1S9cXzR1hnVe+WPcHx0vJS/7uor/1P5zwyu7V4f+CvrrUvfY7o7X0tf9b5a+NXy78537u5aeuJ6H7/Pe930o6TXs3fXR++PZTymfnvdN/Uz6XPHF/kvj16iv9/vz+vslXCl34FcAgw3NzATgzU4AaKkA0OG5jTJOeRYcEER5fh1A4D9h5XlxQDwBqIWd4jee3QzAfths5kLuIAAUv/CJQQB1cxtqKpFlurkquajwJETo7e9/awIAqRGAL9L+/r6N/f1ftsNg7wDQPEV5BlUIEZ4ZtgQo0A2DjEH/Q6I8n36X4489UETgDn7s/wU6ZI9aTNuQhAAAAIplWElmTU0AKgAAAAgABAEaAAUAAAABAAAAPgEbAAUAAAABAAAARgEoAAMAAAABAAIAAIdpAAQAAAABAAAATgAAAAAAAACQAAAAAQAAAJAAAAABAAOShgAHAAAAEgAAAHigAgAEAAAAAQAAAECgAwAEAAAAAQAAAFIAAAAAQVNDSUkAAABTY3JlZW5zaG900NiDSgAAAAlwSFlzAAAWJQAAFiUBSVIk8AAAAdRpVFh0WE1MOmNvbS5hZG9iZS54bXAAAAAAADx4OnhtcG1ldGEgeG1sbnM6eD0iYWRvYmU6bnM6bWV0YS8iIHg6eG1wdGs9IlhNUCBDb3JlIDYuMC4wIj4KICAgPHJkZjpSREYgeG1sbnM6cmRmPSJodHRwOi8vd3d3LnczLm9yZy8xOTk5LzAyLzIyLXJkZi1zeW50YXgtbnMjIj4KICAgICAgPHJkZjpEZXNjcmlwdGlvbiByZGY6YWJvdXQ9IiIKICAgICAgICAgICAgeG1sbnM6ZXhpZj0iaHR0cDovL25zLmFkb2JlLmNvbS9leGlmLzEuMC8iPgogICAgICAgICA8ZXhpZjpQaXhlbFlEaW1lbnNpb24+ODI8L2V4aWY6UGl4ZWxZRGltZW5zaW9uPgogICAgICAgICA8ZXhpZjpQaXhlbFhEaW1lbnNpb24+NjQ8L2V4aWY6UGl4ZWxYRGltZW5zaW9uPgogICAgICAgICA8ZXhpZjpVc2VyQ29tbWVudD5TY3JlZW5zaG90PC9leGlmOlVzZXJDb21tZW50PgogICAgICA8L3JkZjpEZXNjcmlwdGlvbj4KICAgPC9yZGY6UkRGPgo8L3g6eG1wbWV0YT4KyolICQAAABxpRE9UAAAAAgAAAAAAAAApAAAAKAAAACkAAAApAAAJP/E/7ssAAAkLSURBVHgB7Fr5c1PXGT1aLVkLsiXZlo1tHCixobZLAkwCCQQCAaeFzCQkmTRt0iXTKUMmf05LOkmnPyTThV8yk5lOYjdLIaFtWA2JIdgxW/AmW8aWLT0tT6/nu5KMEsbGlozKTLnwpCc9vXe/79zzrdcmgwP/x8N0H4D7DLhvAoaR0ZFJaUjNTMLQ04BgYjLdW54ht04miwUWpxeWikqYrfaSZTRReSM5PQ5tbBDx630KCLGKe01/5Fy1YbbAEWyBs/4HcNSsopzmkkAwZdJJY+ZKLyZ7uxHr+wx6Ik4C3FsA5LkoJNB1wNnSDt+Gp+DfsBdmi7UktprSiZgxef5jjB/7M+IXe5FO0gQ44z3BAKV5Tn1qn8kA6UQGlauaENiyD3U7f6VMwWQungWmtBYzIlz98D/fgdbfB6PCDnuwHs6G1aTWHPYF5yUxbmk3q4UwI6OnkLo5Bm3kW2g3wnA0NRCA/ajf/RosDjdKBkDoHz76LuIDfbD6g/D88HFUP9QFCLLCOzXyYCxNh5J+nQcgncTstS8x1fsJps6egaOxHoGtz6B+12sw0xmWDsA5YcC70Aa+gn3lKvi3HCC9fqmUlwghB1/yfqgknYq9Odr/H4Q/O4KJox+hYmUI/q1kAGU02RgJaK/yTxbMZLbykMWS485DmcBkIQANzagmACE+XEJjbKgf8eF+JKfGYMhEPMo6OJ1Bz6eNXsHs5XOIDV6GdYUblS2t8K7dBLOtQi2U2e6Evaoerqb1sHuD2e8XIeg8ADyHuideRSIyhMjpvyN64XPoDJUCgAArEOQNYxFzlP6TjAFdm0UqGmWuEqNyVtg8Lti8VVxti2KnucIJm78B1RufgbulE/YVNYuadx4ADqB2+8+U3Y189EdM9x6DKZEErBZlb8ICo6wQCOSy0IwEfJdP6hA5VGigiZL+Vq8XgSdfga9jFypDa+SWO475Adj2U0x/cxojPX9A9PwJiFmZPR5mYS5mYDYKI6KUc1AA/jeY+LCCy01MZiQ06NEpgAtkZgQL7P45HfjTcK1sW5RwCwDwMqKDBKD7TZrAadjdLng6d8DZuJ7088ty5HIFWYtyjCwAhTNlmLZr49cx89Wn0K5eUmwI7nkVVRsIQMODhT+d93xhAC6fwciHhzH79RlUVPvh3/EKPGsfgd0XUg9UqpfbKRaowiwWseEBRI7/lSAcRyaRQGDvL7IA1K8t+OX8p4sE4CwcgQCCe34Db+tjqKgKZe0xqcFIJVSioowy+zL/bMt8RQq3+MggIv/6G6J9/0ZGS6B65wvwtT8JZ+0D2dmEqXSUZmsFTcRB1tJpFizaIgFg8uEP0L5+DW/bNgJQj0w6gfjQ1wxPgwyR4exDCx68zLre/jgpgqicRKrYwClow1dhpHW4Wn+EysZ1ZGntXGVrqfRyAZvg4vcWhwcmqR9yY2kA7CIA67bB5vbT9q4hcuI9xC6fRXpqIuuclE3kHVR+irv1nvU94gRTdIJ6PKFYafO6YXO5YbY71GeJV5It2lk5BrY8j8qGNspfNSdUUQBYnR7MXD2P0X+8RfTPQY9pgI0hUlZF5CoHBln91VwZMiHf2DKThSpZ43WD+QPtkzKZmSMEUdd1EL62rfRn9aUBYHG4GCJPYfTDN8mAi6RaBhafj/RyZelFgco6lOkVICJrwPwgQx+lT9+kc0zCyhAe+slBVLXvZD+haU68ohiQByDMCKF9O8iHe7Fi8z64mjtgdVURkBQnyAs0N1fBiQB0F0Gio5M0Xhu7iqmT7yN+bQCGzYbQvkNZAAKNc7IUCYCbDDgJASAxdAX26iD8LE09qzeqPFwV7jLFghgsXy5ZOI3AKqaoJ2YZIr/BxCdvI3rpDDIEZfkB+OAwksMEIFCLQNcheAmAMCCTiHEF2FmSNFVGXsKsdOzi2LJ1PCu5Ulta2Qluf9W1GQVAuPv3iF48CZ1mEtr3+jIzIA+AXwA4qBggyklsTkxcVzSkhrcQkJjMEGSt9NEbP6hClarmbpe/5G/0+Axmhy9hvIeZ7MVTdxkAMiDY9Trj7HokGB7Hjv2FhdQF5YSyi6+WXripALC4vAg+9jx867Z/xyGVrHXBA8oOQM2P30BFTQtiV8+xfmB4vH6Nfs6Axc4GBVvZcq6n04xKGZhYVdbuegmBTftV0SItL7le+pCsT+az0gzj5WRAHQQAO+PrDAuosZ63aQZhFk2VqAjW8Z1+IRmnWYxCm4jQNNIE4AD8m/bBWbcGyZvDKqVWICiTWToUKg8giGJethVBBYLUCeM9h8thAnkAGjBzmQB0E4DRMbhbO1D1cBfczZ1ITY2q1vvk6U+Rmp5B6CnJ2XeoltZUbw/SUWaT7PwU298Th2vi4WhsY7r+uAI2Hr7CSFUOJxj4LgBhYQAB8G3cjuC2l+FZ1Yk0d53Gjh9h8/UImTCJ0J4XVWWpx6cQ+fhPSEYiKqFSjYelE4AZH01IN7EWaGdL71k+ewsSk0ME4Hcs50/cbSd4C4BZYUAOAG/no8y/D8C9qoP5egTjX7yH8ePvs8U9RQa8yMpyiwqZkaPvIDk5ofxD8QAw5DLrda3tQPXm/XCv3qQKpXB3mQEQEwiLCYyMsX/fDE/rIyrkJafDTEhOINovtUMcdbtfQHXnLkilNn3xc6RnmbKKCRTtAwgA834nW2HuBx5m9boScWaC5ckDCk1g8CTGPniLmxjjtG8zFXQwEtiZHKZZsWlIx5Jkq0En+ByCjz5LdnQqBynCl7IlJ/dKIJF2nVSCmZQ0S/rLlwfUPP0GHHWrEb9xAWHatHaD9TkbFiYLe3hqVWVrK1u1GRSyZsdLud5dKy2ekqsoqF6K8QDqHrmbmYbKPPX4bDnDoCRCh9iTb6ezm8BNevXEyIBKhPJpsAim1GN3xsTtrCpubHpaHlLZYNEaL3BjeRMhSYX3HoR3DTcq2HwQ7yt7eQa7Rtk1zRcDXBzZ3ycAzmCzqhsKuzML6LPkS/8DAH5LADZzsyKgyuG5P7Sg6IXEzjYrzOqPG9SmRpFO706IlBmAmhwDNt81St9J4e9fvw9AWatBfyEDuCeXC0nfX5W5z8pRy8st3zB3bZlOFsuA/wIAAP//ciimvAAACoZJREFU7Vr5c1PnFT1PuyxZtmRZlg0GDGYvO5gmBZoAZliSttMGsjW/pDsJ/W+SkEwyyUyaDpOf0kxnCqY0kDQLi8O+GrMaL5K8ad9fz/1kY+MSY4S3mfZ5LMt69nvvO+/ec+4992nZZFzvPdeE4LFPkLx+EZYZs+F5+gVUbXoVkZun0XloP2JXT8NW4YV362/gWrIJRpsT4dZTCB7cj3THLVgqqlC5/U8orV8Hg9mGZOgO0v1dyGfTADT1xTeFzWCAyeaAzVcHs8sLg8kyuGdcf+YSUcQ6riF0+F1ErjQjp2mofv5NuJdths1be/9c2rgA4CUAO96Ac/ZyZKI96Dt3GMn268hnkupEAoFsOn9oBhMMdifcK7bBWbcalnKf2jfeL5MOgG/XPtj89UjcvYTAkQ+RbLsJPZuDZjJAI/rQdeTzOuQLZjN8m1+BZ80uOGYs5K48948HBDyIZuC3hnwyPpkR4Idv159h8dQgeqMZwaYPkOwIQrOYYHTaYbLamA5ZZONxfiehE4iqxl+hYv0vGTXLkEszUvI5AqHLtRe1yf/KZjCZYbDYoWfSUwHAjPsAJLoCsM2ag9KFDbBXz0M22otwyylEW84hG0uiettulK9ohMnuQv+Vr/lZH4FhxMgdLGLT83lo/H9bTT2cc9eQs2YgEbyN4KF3yAGnJpoDBiOAANz8XkWAAOBa9RS8JFTn7BXIRLoROvE3hL75HJm+fgLwIlyLnkY+FUfo6MdI93YzCAgASbKoLcc0YmQ5Fq5gZP1cEXKyp50AvI3I5ZOTB0CMAAQOMwUIQHnDZvh++msV5tl4P7q+/hSBLw4g3dOrACid34BcrIcX+T4yPf0EgIswFJkDXLyW0+BcshSejbvhWrwJqd6OyQdAIiAgHEAAHAuWoGzFFhLdYhUBfReOov/8N8hGYvA3MgWWb4bRWoLwhX8xRQopUDQJCADkAduM+XAu+LGS2URAUoARMJkpELvZjC4BoDMIU5mTF1IDi8uDXDLB+qAdye4QCSqHqq0vwLP2Odj98xgR7fwsRSFgBAxI5mOngSJBHaaScpjLq6AZzUh0XEfw8P7JqQNEBawsbuK3z6kUiN9rU9JnpBJoRuY171COSpAXsjIa4dvyEirW/QyO2iXQmftKB59ICkUCRQF5LoNxsmWQhdDON7mYZUgFbyFw7C+I3b7Eu055U7pWWJmqB4yURoeL3PAy3D96hlXZrMe+2WP5h8kthFgKe3ewFJ67Vt3dBEvQdE/nQCn84OVqAgBL6ZKahbC4q8kB9gf/YJx+m2QAfPCyF3DVN8BcynyntOXTCeq65PSIjRFhYH4a2Q9oJmvxsjfisCN/nTIALCSg6bD9H4BJ7QYrhlJgMAKkrJUGSG0P1DbsDQcalomMlHGKgDP0A94Zkx9Q4IB1iuAy4aBqi/VshmsUeRpCQKNEGSwlbIP91GwXSdM0ITgUD8DMOfA8JYbIK4jeOouOgwLA9480RLw79qK0bpUiv/C171QRoqfjhcUNrZ8LZrfmcKN88QYqwSKYHGXTDIDauoIjtPFlRO9cQOc/3kL0cvPoAIghsnMf7DULEKcf0CW9wF3xAxgBUttLKigQ+CLNjtmCqi2vomLNTpTQD5iI7fEi4CwtsS8/QYKWmLmqBmWrtqFi7fOItV1C6KsDSNy6Crt3FEvMK93gPlhY1MSUjfY+HaFOwEjJs1vZo5uUJOZTaUZIRnkf/sY98Db8Ao5ZS/kZPYJBU2RYtDw2MARa/ACRVymtx26JCQCs3uItl6A57LDNrEdJ7VKk+joQbz2PXLgPJT4WO1tff7gnqAAQQ6TgB0gzJO2wpbIS9lkLYeXn2UQYiXstiLfdYguchn/rbnhWb1f74vcus3SNFUAYxhePBYBEGb8tbj9sVfPIL2VIdN4Y6AVG8wNSYor+kwD8FfGr51iv05lh2Er9Ls6Nns1D6nm7349KAlD2MFN0OACDfkAgwE5wPbw/2YPSeQ1sTe8hdPwzhL79u/ID/Nv2oIw8APYBPd9+inRfkD1BlqlSpB+gDJE8HPUrUb56JxxzVrL5ahvoBkfxA3KZlB6+fgK9Jz9H5PxXrOKkK2NryS8xKHKJNEPKOGYAxA8IkgMkAsoanmXN/xrK5q1FmsoQ+PcBdB3lYrt7UL39RRT8gD70HPmQpTO7RIL9RH4Ab1jJouXwEHTnog00WToJwFujGyJcpJ7quUfyuoDodSKVklAshFO6P4TEnSvIRaOwVzECGn+r7prB6kDkxmkEDr6NdPtN5v4wR+jGEACOxcvhJtE5Zy2DSGPvmSb0nj7K9xH6AXtQvnQTFVJT4GfCBEBqhyeIAPEV7XXLUb5sC0pmLmEE3H20H8DF6uLfi2OT6m6jlZ1SuZTPZyllrehh2Kbo8NqZz2ousGijquPDslDWCOl2zgUeAKAZgUMfIC4cUFEBe20987yGx48gQas80X5XEaG/kX7A6h2KA2LCAewflK9XJAfITdP1HKzuGt6suQUO6CIHNIkfMAoHCAAPIxsBJXrnIjqUDJ6Eze2B55nX6ONtgNHuUIOR7iMfId11F9ZKRsBO+gEcOERbmymd7ylXWHl8VILBbfBUeX4kpmgl/UKpHSZiG7MM/iAAjIQww7yz6V1EL52ie2uFff5q2KnbBosN8Y4bSFw9Dj0e4zxgJnwcjMi+JFEPUFJTba3KmtaGeXwKAIa4Tpvct+kluJdvUXdr2gIgo7GOpvcQPntcOTqGUhfvvpNpakI2GYUe7YeRgw87x2m+7X+Ak8wrkRPhbCBNP06XydBQABSqYpbCGq1w14L1JNZ6FarTEwAuJN52GV2sD/rOUR2i0t8XijrRW/HvDOQJk91CwpkD37bf0YpugMnppuZHkYv3DRgikmFDKEgvYCSJmvl3Mkcc3ieMJxBPnALCyCJdfZe+pDo0U7sDhYvlAmRfJtyNDPNfo/7aa2oJwO8VAIVuUFTkEcspkuwecdT7u58YALnLEs4y7JSpTo4hL3dSDE2RSiHIvu8+Q7Y3SBKs5nT4j3SE1sFSNp0MkRZOhx/hCv8QCd6Hkm9EnqiV6iPp5bPxMPo5Hg+RH9KdMh730xPcCxcLHkvZxEx7h1/PWN7nWFrHO1spgwNzAd68h47HxwLAyBNmOMdTdQBb5ZQUQm4vPFteVyRooScoDDG1G6tY1hVJzga7j36ESMsZ5DUjAXjjv58PKAoAGXRS7wOUyMSdFsqilSVoA5uQOqUSBSNk6iDQuNh8LoMMH9KIXztBq74Lms2G6l17CcCzsFUOWfGcJj28EBrt8jODAPDpkfiNq4WGqdTJCtGuOEK1tqMdYIL3SR8jy5IReS4a4fg9A2O5C9XPCQAjnhApBoBsIkKv4DJCxz5mu8wOMkaCFFYfUrsJXuJjHF6ykX6EmeV6lTziw4HsoG8pRykqAqRfEInsv/AFnwi5iFwkxPWzwrt/XVONhHSzosQDr6w7LJWz4V65TU2iZDAzuBUFgJJI9u6Z/gAysV4Sjkgk+/ipXvfgqob/ZCoYzFZVcZppxBpGDGOKA2DgBHl6fjrJZlAih593Or0XUtTk0RkasiMrzycCYDotsthr+Z8H4D8o2pLsYNIf4gAAAABJRU5ErkJggg==;spacing=-1;" vertex="1" parent="r5tLVVq1wL72WuHR3fhP-8">
          <mxGeometry x="80.60000000000001" y="40.24716981132075" width="46.929169811320754" height="60.12830188679246" as="geometry" />
        </mxCell>
        <mxCell id="r5tLVVq1wL72WuHR3fhP-14" value="AZ 2" style="sketch=0;outlineConnect=0;gradientColor=none;html=1;whiteSpace=wrap;fontSize=12;fontStyle=0;shape=mxgraph.aws4.group;grIcon=mxgraph.aws4.group_availability_zone;strokeColor=#545B64;fillColor=none;verticalAlign=top;align=left;spacingLeft=30;fontColor=#545B64;dashed=1;" vertex="1" parent="r5tLVVq1wL72WuHR3fhP-8">
          <mxGeometry x="-580" y="-80" width="1258" height="234" as="geometry" />
        </mxCell>
        <mxCell id="ByVA42EGtI5dpzOPRM_D-21" value="Aurora DB" style="sketch=0;points=[[0,0,0],[0.25,0,0],[0.5,0,0],[0.75,0,0],[1,0,0],[0,1,0],[0.25,1,0],[0.5,1,0],[0.75,1,0],[1,1,0],[0,0.25,0],[0,0.5,0],[0,0.75,0],[1,0.25,0],[1,0.5,0],[1,0.75,0]];outlineConnect=0;fontColor=#232F3E;gradientColor=#4D72F3;gradientDirection=north;fillColor=#3334B9;strokeColor=#ffffff;dashed=0;verticalLabelPosition=bottom;verticalAlign=top;align=center;html=1;fontSize=12;fontStyle=0;aspect=fixed;shape=mxgraph.aws4.resourceIcon;resIcon=mxgraph.aws4.aurora;" parent="ByVA42EGtI5dpzOPRM_D-35" vertex="1">
          <mxGeometry x="348" y="387" width="106.5" height="106.5" as="geometry" />
        </mxCell>
        <mxCell id="r5tLVVq1wL72WuHR3fhP-13" value="Aurora DB" style="sketch=0;points=[[0,0,0],[0.25,0,0],[0.5,0,0],[0.75,0,0],[1,0,0],[0,1,0],[0.25,1,0],[0.5,1,0],[0.75,1,0],[1,1,0],[0,0.25,0],[0,0.5,0],[0,0.75,0],[1,0.25,0],[1,0.5,0],[1,0.75,0]];outlineConnect=0;fontColor=#232F3E;gradientColor=#4D72F3;gradientDirection=north;fillColor=#3334B9;strokeColor=#ffffff;dashed=0;verticalLabelPosition=bottom;verticalAlign=top;align=center;html=1;fontSize=12;fontStyle=0;aspect=fixed;shape=mxgraph.aws4.resourceIcon;resIcon=mxgraph.aws4.aurora;" vertex="1" parent="ByVA42EGtI5dpzOPRM_D-35">
          <mxGeometry x="348" y="66" width="106.5" height="106.5" as="geometry" />
        </mxCell>
        <mxCell id="r5tLVVq1wL72WuHR3fhP-1" value="AZ 1" style="sketch=0;outlineConnect=0;gradientColor=none;html=1;whiteSpace=wrap;fontSize=12;fontStyle=0;shape=mxgraph.aws4.group;grIcon=mxgraph.aws4.group_availability_zone;strokeColor=#545B64;fillColor=none;verticalAlign=top;align=left;spacingLeft=30;fontColor=#545B64;dashed=1;" vertex="1" parent="ByVA42EGtI5dpzOPRM_D-33">
          <mxGeometry x="50" y="158" width="1170" height="234" as="geometry" />
        </mxCell>
        <mxCell id="ByVA42EGtI5dpzOPRM_D-54" value="MQ" style="sketch=0;points=[[0,0,0],[0.25,0,0],[0.5,0,0],[0.75,0,0],[1,0,0],[0,1,0],[0.25,1,0],[0.5,1,0],[0.75,1,0],[1,1,0],[0,0.25,0],[0,0.5,0],[0,0.75,0],[1,0.25,0],[1,0.5,0],[1,0.75,0]];outlineConnect=0;fontColor=#232F3E;gradientColor=#FF4F8B;gradientDirection=north;fillColor=#BC1356;strokeColor=#ffffff;dashed=0;verticalLabelPosition=bottom;verticalAlign=top;align=center;html=1;fontSize=12;fontStyle=0;aspect=fixed;shape=mxgraph.aws4.resourceIcon;resIcon=mxgraph.aws4.mq;" parent="1" vertex="1">
          <mxGeometry x="-780" y="740" width="78" height="78" as="geometry" />
        </mxCell>
        <mxCell id="ByVA42EGtI5dpzOPRM_D-56" value="API Gateway" style="sketch=0;points=[[0,0,0],[0.25,0,0],[0.5,0,0],[0.75,0,0],[1,0,0],[0,1,0],[0.25,1,0],[0.5,1,0],[0.75,1,0],[1,1,0],[0,0.25,0],[0,0.5,0],[0,0.75,0],[1,0.25,0],[1,0.5,0],[1,0.75,0]];outlineConnect=0;fontColor=#232F3E;gradientColor=#945DF2;gradientDirection=north;fillColor=#5A30B5;strokeColor=#ffffff;dashed=0;verticalLabelPosition=bottom;verticalAlign=top;align=center;html=1;fontSize=12;fontStyle=0;aspect=fixed;shape=mxgraph.aws4.resourceIcon;resIcon=mxgraph.aws4.api_gateway;" parent="1" vertex="1">
          <mxGeometry x="-550" y="545" width="78" height="78" as="geometry" />
        </mxCell>
        <mxCell id="ByVA42EGtI5dpzOPRM_D-60" value="Route 53" style="sketch=0;points=[[0,0,0],[0.25,0,0],[0.5,0,0],[0.75,0,0],[1,0,0],[0,1,0],[0.25,1,0],[0.5,1,0],[0.75,1,0],[1,1,0],[0,0.25,0],[0,0.5,0],[0,0.75,0],[1,0.25,0],[1,0.5,0],[1,0.75,0]];outlineConnect=0;fontColor=#232F3E;gradientColor=#945DF2;gradientDirection=north;fillColor=#5A30B5;strokeColor=#ffffff;dashed=0;verticalLabelPosition=bottom;verticalAlign=top;align=center;html=1;fontSize=12;fontStyle=0;aspect=fixed;shape=mxgraph.aws4.resourceIcon;resIcon=mxgraph.aws4.route_53;" parent="1" vertex="1">
          <mxGeometry x="-580" y="190" width="78" height="78" as="geometry" />
        </mxCell>
        <mxCell id="ByVA42EGtI5dpzOPRM_D-63" value="Site-to-Site VPN" style="sketch=0;points=[[0,0,0],[0.25,0,0],[0.5,0,0],[0.75,0,0],[1,0,0],[0,1,0],[0.25,1,0],[0.5,1,0],[0.75,1,0],[1,1,0],[0,0.25,0],[0,0.5,0],[0,0.75,0],[1,0.25,0],[1,0.5,0],[1,0.75,0]];outlineConnect=0;fontColor=#232F3E;gradientColor=#945DF2;gradientDirection=north;fillColor=#5A30B5;strokeColor=#ffffff;dashed=0;verticalLabelPosition=bottom;verticalAlign=top;align=center;html=1;fontSize=12;fontStyle=0;aspect=fixed;shape=mxgraph.aws4.resourceIcon;resIcon=mxgraph.aws4.site_to_site_vpn;" parent="1" vertex="1">
          <mxGeometry x="-740" y="380" width="78" height="78" as="geometry" />
        </mxCell>
        <mxCell id="ByVA42EGtI5dpzOPRM_D-64" value="DMS" style="sketch=0;points=[[0,0,0],[0.25,0,0],[0.5,0,0],[0.75,0,0],[1,0,0],[0,1,0],[0.25,1,0],[0.5,1,0],[0.75,1,0],[1,1,0],[0,0.25,0],[0,0.5,0],[0,0.75,0],[1,0.25,0],[1,0.5,0],[1,0.75,0]];outlineConnect=0;fontColor=#232F3E;gradientColor=#4AB29A;gradientDirection=north;fillColor=#116D5B;strokeColor=#ffffff;dashed=0;verticalLabelPosition=bottom;verticalAlign=top;align=center;html=1;fontSize=12;fontStyle=0;aspect=fixed;shape=mxgraph.aws4.resourceIcon;resIcon=mxgraph.aws4.database_migration_service;" parent="1" vertex="1">
          <mxGeometry x="-550" y="690" width="78" height="78" as="geometry" />
        </mxCell>
        <mxCell id="ByVA42EGtI5dpzOPRM_D-59" value="Shield" style="sketch=0;points=[[0,0,0],[0.25,0,0],[0.5,0,0],[0.75,0,0],[1,0,0],[0,1,0],[0.25,1,0],[0.5,1,0],[0.75,1,0],[1,1,0],[0,0.25,0],[0,0.5,0],[0,0.75,0],[1,0.25,0],[1,0.5,0],[1,0.75,0]];outlineConnect=0;fontColor=#232F3E;gradientColor=#F54749;gradientDirection=north;fillColor=#C7131F;strokeColor=#ffffff;dashed=0;verticalLabelPosition=bottom;verticalAlign=top;align=center;html=1;fontSize=12;fontStyle=0;aspect=fixed;shape=mxgraph.aws4.resourceIcon;resIcon=mxgraph.aws4.shield;" parent="1" vertex="1">
          <mxGeometry x="-550" y="900" width="78" height="78" as="geometry" />
        </mxCell>
        <mxCell id="ByVA42EGtI5dpzOPRM_D-66" value="IAM" style="sketch=0;points=[[0,0,0],[0.25,0,0],[0.5,0,0],[0.75,0,0],[1,0,0],[0,1,0],[0.25,1,0],[0.5,1,0],[0.75,1,0],[1,1,0],[0,0.25,0],[0,0.5,0],[0,0.75,0],[1,0.25,0],[1,0.5,0],[1,0.75,0]];outlineConnect=0;fontColor=#232F3E;gradientColor=#F54749;gradientDirection=north;fillColor=#C7131F;strokeColor=#ffffff;dashed=0;verticalLabelPosition=bottom;verticalAlign=top;align=center;html=1;fontSize=12;fontStyle=0;aspect=fixed;shape=mxgraph.aws4.resourceIcon;resIcon=mxgraph.aws4.identity_and_access_management;" parent="1" vertex="1">
          <mxGeometry x="-570" y="1010" width="78" height="78" as="geometry" />
        </mxCell>
        <mxCell id="ByVA42EGtI5dpzOPRM_D-57" value="Cloud Trail" style="sketch=0;points=[[0,0,0],[0.25,0,0],[0.5,0,0],[0.75,0,0],[1,0,0],[0,1,0],[0.25,1,0],[0.5,1,0],[0.75,1,0],[1,1,0],[0,0.25,0],[0,0.5,0],[0,0.75,0],[1,0.25,0],[1,0.5,0],[1,0.75,0]];points=[[0,0,0],[0.25,0,0],[0.5,0,0],[0.75,0,0],[1,0,0],[0,1,0],[0.25,1,0],[0.5,1,0],[0.75,1,0],[1,1,0],[0,0.25,0],[0,0.5,0],[0,0.75,0],[1,0.25,0],[1,0.5,0],[1,0.75,0]];outlineConnect=0;fontColor=#232F3E;gradientColor=#F34482;gradientDirection=north;fillColor=#BC1356;strokeColor=#ffffff;dashed=0;verticalLabelPosition=bottom;verticalAlign=top;align=center;html=1;fontSize=12;fontStyle=0;aspect=fixed;shape=mxgraph.aws4.resourceIcon;resIcon=mxgraph.aws4.cloudtrail;" parent="1" vertex="1">
          <mxGeometry x="-720" y="910" width="78" height="78" as="geometry" />
        </mxCell>
        <mxCell id="ByVA42EGtI5dpzOPRM_D-65" value="KMS" style="outlineConnect=0;dashed=0;verticalLabelPosition=bottom;verticalAlign=top;align=center;html=1;shape=mxgraph.aws3.kms;fillColor=#759C3E;gradientColor=none;fontSize=9;" parent="1" vertex="1">
          <mxGeometry x="-700" y="1020" width="76.5" height="93" as="geometry" />
        </mxCell>
        <mxCell id="ByVA42EGtI5dpzOPRM_D-45" value="Certificate Manager" style="sketch=0;points=[[0,0,0],[0.25,0,0],[0.5,0,0],[0.75,0,0],[1,0,0],[0,1,0],[0.25,1,0],[0.5,1,0],[0.75,1,0],[1,1,0],[0,0.25,0],[0,0.5,0],[0,0.75,0],[1,0.25,0],[1,0.5,0],[1,0.75,0]];outlineConnect=0;fontColor=#232F3E;gradientColor=#F54749;gradientDirection=north;fillColor=#C7131F;strokeColor=#ffffff;dashed=0;verticalLabelPosition=bottom;verticalAlign=top;align=center;html=1;fontSize=12;fontStyle=0;aspect=fixed;shape=mxgraph.aws4.resourceIcon;resIcon=mxgraph.aws4.certificate_manager_3;" parent="1" vertex="1">
          <mxGeometry x="-700" y="574" width="78" height="78" as="geometry" />
        </mxCell>
        <mxCell id="ByVA42EGtI5dpzOPRM_D-44" value="Container registry" style="sketch=0;points=[[0,0,0],[0.25,0,0],[0.5,0,0],[0.75,0,0],[1,0,0],[0,1,0],[0.25,1,0],[0.5,1,0],[0.75,1,0],[1,1,0],[0,0.25,0],[0,0.5,0],[0,0.75,0],[1,0.25,0],[1,0.5,0],[1,0.75,0]];outlineConnect=0;fontColor=#232F3E;gradientColor=#F78E04;gradientDirection=north;fillColor=#D05C17;strokeColor=#ffffff;dashed=0;verticalLabelPosition=bottom;verticalAlign=top;align=center;html=1;fontSize=12;fontStyle=0;aspect=fixed;shape=mxgraph.aws4.resourceIcon;resIcon=mxgraph.aws4.ecr;" parent="1" vertex="1">
          <mxGeometry x="-660" y="760" width="78" height="78" as="geometry" />
        </mxCell>
        <mxCell id="ByVA42EGtI5dpzOPRM_D-25" value="Cloud Map" style="sketch=0;points=[[0,0,0],[0.25,0,0],[0.5,0,0],[0.75,0,0],[1,0,0],[0,1,0],[0.25,1,0],[0.5,1,0],[0.75,1,0],[1,1,0],[0,0.25,0],[0,0.5,0],[0,0.75,0],[1,0.25,0],[1,0.5,0],[1,0.75,0]];outlineConnect=0;fontColor=#232F3E;gradientColor=#945DF2;gradientDirection=north;fillColor=#5A30B5;strokeColor=#ffffff;dashed=0;verticalLabelPosition=bottom;verticalAlign=top;align=center;html=1;fontSize=12;fontStyle=0;aspect=fixed;shape=mxgraph.aws4.resourceIcon;resIcon=mxgraph.aws4.cloud_map;" parent="1" vertex="1">
          <mxGeometry x="-550" y="340" width="78" height="78" as="geometry" />
        </mxCell>
        <mxCell id="ByVA42EGtI5dpzOPRM_D-24" value="App Mesh" style="sketch=0;points=[[0,0,0],[0.25,0,0],[0.5,0,0],[0.75,0,0],[1,0,0],[0,1,0],[0.25,1,0],[0.5,1,0],[0.75,1,0],[1,1,0],[0,0.25,0],[0,0.5,0],[0,0.75,0],[1,0.25,0],[1,0.5,0],[1,0.75,0]];outlineConnect=0;fontColor=#232F3E;gradientColor=#945DF2;gradientDirection=north;fillColor=#5A30B5;strokeColor=#ffffff;dashed=0;verticalLabelPosition=bottom;verticalAlign=top;align=center;html=1;fontSize=12;fontStyle=0;aspect=fixed;shape=mxgraph.aws4.resourceIcon;resIcon=mxgraph.aws4.app_mesh;" parent="1" vertex="1">
          <mxGeometry x="-730" y="230" width="78" height="78" as="geometry" />
        </mxCell>
        <mxCell id="ByVA42EGtI5dpzOPRM_D-61" value="Cognito" style="sketch=0;points=[[0,0,0],[0.25,0,0],[0.5,0,0],[0.75,0,0],[1,0,0],[0,1,0],[0.25,1,0],[0.5,1,0],[0.75,1,0],[1,1,0],[0,0.25,0],[0,0.5,0],[0,0.75,0],[1,0.25,0],[1,0.5,0],[1,0.75,0]];outlineConnect=0;fontColor=#232F3E;gradientColor=#F54749;gradientDirection=north;fillColor=#C7131F;strokeColor=#ffffff;dashed=0;verticalLabelPosition=bottom;verticalAlign=top;align=center;html=1;fontSize=12;fontStyle=0;aspect=fixed;shape=mxgraph.aws4.resourceIcon;resIcon=mxgraph.aws4.cognito;" parent="1" vertex="1">
          <mxGeometry x="-630" y="430" width="78" height="78" as="geometry" />
        </mxCell>
        <mxCell id="ByVA42EGtI5dpzOPRM_D-58" value="Cloud Watch" style="sketch=0;points=[[0,0,0],[0.25,0,0],[0.5,0,0],[0.75,0,0],[1,0,0],[0,1,0],[0.25,1,0],[0.5,1,0],[0.75,1,0],[1,1,0],[0,0.25,0],[0,0.5,0],[0,0.75,0],[1,0.25,0],[1,0.5,0],[1,0.75,0]];points=[[0,0,0],[0.25,0,0],[0.5,0,0],[0.75,0,0],[1,0,0],[0,1,0],[0.25,1,0],[0.5,1,0],[0.75,1,0],[1,1,0],[0,0.25,0],[0,0.5,0],[0,0.75,0],[1,0.25,0],[1,0.5,0],[1,0.75,0]];outlineConnect=0;fontColor=#232F3E;gradientColor=#F34482;gradientDirection=north;fillColor=#BC1356;strokeColor=#ffffff;dashed=0;verticalLabelPosition=bottom;verticalAlign=top;align=center;html=1;fontSize=12;fontStyle=0;aspect=fixed;shape=mxgraph.aws4.resourceIcon;resIcon=mxgraph.aws4.cloudwatch_2;" parent="1" vertex="1">
          <mxGeometry x="-790" y="496" width="78" height="78" as="geometry" />
        </mxCell>
      </root>
    </mxGraphModel>
  </diagram>
</mxfile>
